<?xml version="1.0" encoding="UTF-8" standalone="no"?>
<!-- Created with Inkscape (http://www.inkscape.org/) -->

<svg
   version="1.1"
   id="svg9"
   width="272.79999"
   height="310.39999"
   viewBox="0 0 272.79999 310.39999"
   sodipodi:docname="catpaw.svg"
   inkscape:version="1.2.1 (9c6d41e410, 2022-07-14)"
   xmlns:inkscape="http://www.inkscape.org/namespaces/inkscape"
   xmlns:sodipodi="http://sodipodi.sourceforge.net/DTD/sodipodi-0.dtd"
   xmlns="http://www.w3.org/2000/svg"
   xmlns:svg="http://www.w3.org/2000/svg">
  <defs
     id="defs13">
    <inkscape:path-effect
       effect="bspline"
       id="path-effect261"
       is_visible="true"
       lpeversion="1"
       weight="33.333333"
       steps="2"
       helper_size="0"
       apply_no_weight="true"
       apply_with_weight="true"
       only_selected="false" />
    <inkscape:path-effect
       effect="bspline"
       id="path-effect257"
       is_visible="true"
       lpeversion="1"
       weight="33.333333"
       steps="2"
       helper_size="0"
       apply_no_weight="true"
       apply_with_weight="true"
       only_selected="false" />
    <inkscape:path-effect
       effect="bspline"
       id="path-effect199"
       is_visible="true"
       lpeversion="1"
       weight="33.333333"
       steps="2"
       helper_size="0"
       apply_no_weight="true"
       apply_with_weight="true"
       only_selected="false" />
    <inkscape:path-effect
       effect="bspline"
       id="path-effect195"
       is_visible="true"
       lpeversion="1"
       weight="33.333333"
       steps="2"
       helper_size="0"
       apply_no_weight="true"
       apply_with_weight="true"
       only_selected="false" />
    <inkscape:path-effect
       effect="bspline"
       id="path-effect191"
       is_visible="true"
       lpeversion="1"
       weight="33.333333"
       steps="2"
       helper_size="0"
       apply_no_weight="true"
       apply_with_weight="true"
       only_selected="false" />
    <inkscape:path-effect
       effect="bspline"
       id="path-effect187"
       is_visible="true"
       lpeversion="1"
       weight="33.333333"
       steps="2"
       helper_size="0"
       apply_no_weight="true"
       apply_with_weight="true"
       only_selected="false" />
    <inkscape:path-effect
       effect="bspline"
       id="path-effect183"
       is_visible="true"
       lpeversion="1"
       weight="33.333333"
       steps="2"
       helper_size="0"
       apply_no_weight="true"
       apply_with_weight="true"
       only_selected="false" />
  </defs>
  <sodipodi:namedview
     id="namedview11"
     pagecolor="#ffffff"
     bordercolor="#000000"
     borderopacity="0.25"
     inkscape:showpageshadow="2"
     inkscape:pageopacity="0.0"
     inkscape:pagecheckerboard="0"
     inkscape:deskcolor="#d1d1d1"
     showgrid="false"
     inkscape:zoom="2.6900774"
     inkscape:cx="136.24143"
     inkscape:cy="155.01413"
     inkscape:window-width="1920"
     inkscape:window-height="1051"
     inkscape:window-x="-9"
     inkscape:window-y="-9"
     inkscape:window-maximized="1"
     inkscape:current-layer="g15" />
  <g
     inkscape:groupmode="layer"
     inkscape:label="Image"
     id="g15">
    <path
       style="fill:#ff9955"
       d="m 45.848198,152.10276 c -5.824098,-4.15042 -9.293637,-13.07209 -8.364576,-22.55189 0.929061,-9.47981 6.257181,-19.51649 9.912943,-24.96892 3.655762,-5.452435 5.638317,-6.319803 9.046165,-3.84086 3.407848,2.47895 8.240324,8.3027 11.647619,15.36583 3.407296,7.06312 5.389851,15.36507 5.14176,22.056 -0.24809,6.69092 -2.726284,11.77122 -8.054029,14.62097 -5.327745,2.84974 -13.505785,3.46929 -19.329882,-0.68113 z"
       id="path181"
       inkscape:path-effect="#path-effect183"
       inkscape:original-d="m 43.493173,156.87281 c -3.468541,-8.92068 -6.938082,-17.84235 -10.408623,-26.76503 5.32933,-10.03608 10.657447,-20.07277 15.984671,-30.110656 1.983634,-0.866403 3.966189,-1.733771 5.947784,-2.602156 4.833671,5.824992 9.666149,11.648742 14.497724,17.471612 1.983635,8.30329 3.96619,16.60524 5.947784,24.90635 -2.477293,5.0815 -4.955486,10.1618 -7.43473,15.2412 -8.177367,0.62057 -16.355407,1.24012 -24.53461,1.85868 z" />
    <path
       style="fill:#ff9955"
       d="m 89.279498,119.08066 c -2.788323,-4.95634 -5.886129,-12.76281 -6.691857,-20.507613 -0.805728,-7.744801 0.681189,-15.427202 3.717197,-21.251536 3.036008,-5.824334 7.620667,-9.789444 11.152502,-12.081879 3.53184,-2.292436 6.01003,-2.911984 8.86023,-1.858161 2.8502,1.053824 6.07185,3.779836 9.04547,8.550672 2.97362,4.770835 5.69964,11.585868 7.3103,18.277123 1.61066,6.691254 2.1063,13.258464 1.79639,19.082224 -0.30992,5.82376 -1.4251,10.90406 -4.70838,14.06338 -3.28328,3.15932 -8.73531,4.39841 -12.88622,4.89419 -4.15092,0.49578 -7.000839,0.24796 -9.664979,-0.92882 -2.664139,-1.17678 -5.14233,-3.28324 -7.930653,-8.23958 z"
       id="path185"
       inkscape:path-effect="#path-effect187"
       inkscape:original-d="m 89.588501,121.92958 c -3.096804,-7.80547 -6.194608,-15.61194 -9.293413,-23.419402 1.487976,-7.681709 2.974892,-15.36411 4.460838,-23.047665 4.585843,-3.964268 9.170501,-7.929379 13.754252,-11.895568 2.479292,-0.618573 4.957482,-1.238122 7.434732,-1.858683 3.22278,2.727123 6.44443,5.453136 9.66515,8.178204 2.72712,6.816306 5.45313,13.631339 8.1782,20.445508 0.49666,6.568477 0.9923,13.135686 1.48695,19.702036 -1.11423,5.0815 -2.22942,10.1618 -3.34563,15.2412 -5.45125,1.24014 -10.90327,2.47924 -16.35641,3.71736 -2.84904,-0.24683 -5.698958,-0.49465 -8.549938,-0.74347 -2.477293,-2.10555 -4.955487,-4.21201 -7.434731,-6.31952 z" />
    <path
       style="fill:#ff9955"
       d="m 139.02984,111.08843 c -1.36323,-5.51413 -2.72626,-13.692327 -1.92099,-22.304578 0.80526,-8.612251 3.77909,-17.657659 5.94764,-22.924221 2.16856,-5.266562 3.53157,-6.75348 5.2667,-7.806857 1.73514,-1.053377 3.84161,-1.672926 5.94834,-1.920623 2.10673,-0.247697 4.2132,-0.123787 6.25775,0.867981 2.04456,0.991767 4.02712,2.850416 6.87701,6.56793 2.84988,3.717513 6.56717,9.293448 9.47895,15.24132 2.91177,5.947871 5.01823,12.267264 5.20378,17.409298 0.18555,5.14203 -1.54919,9.10714 -3.16006,13.07241 -1.61087,3.96527 -3.09779,7.93038 -7.31038,10.59415 -4.2126,2.66378 -11.15154,4.02679 -16.35568,4.21289 -5.20414,0.1861 -8.67361,-0.80518 -11.09022,-2.72541 -2.4166,-1.92024 -3.77961,-4.77017 -5.14284,-10.28429 z"
       id="path189"
       inkscape:path-effect="#path-effect191"
       inkscape:original-d="m 139.02946,113.75138 c -1.36204,-8.17721 -2.72507,-16.355412 -4.0891,-24.534615 2.97495,-9.04477 5.94878,-18.090178 8.92167,-27.136766 1.36406,-1.485976 2.72707,-2.972892 4.0891,-4.460838 2.10755,-0.618574 4.21402,-1.238122 6.31953,-1.858683 2.10754,0.124915 4.21401,0.248824 6.31952,0.371736 1.98363,1.85972 3.96619,3.718366 5.94778,5.576048 3.71844,5.57716 7.43573,11.153096 11.1521,16.728144 2.10755,6.320647 4.21401,12.640041 6.31952,18.958562 -1.73381,3.966272 -3.46854,7.931382 -5.20431,11.895572 -1.48598,3.96627 -2.9729,7.93138 -4.46084,11.89557 -6.93822,1.36406 -13.87717,2.72706 -20.81725,4.0891 -3.46861,-0.99032 -6.93808,-1.9816 -10.40862,-2.9739 -1.36206,-2.84903 -2.72507,-5.69896 -4.0891,-8.54993 z" />
    <path
       style="fill:#ff9955"
       d="m 183.57589,143.24345 c -0.0618,-3.71725 -0.5575,-8.42592 0.24779,-13.50665 0.80529,-5.08073 2.91176,-10.53276 5.39005,-15.55138 2.47829,-5.01862 5.32821,-9.60328 7.99253,-12.76326 2.66432,-3.159981 5.14252,-4.894719 7.43525,-5.885999 2.29273,-0.99128 4.3992,-1.2391 6.44389,-0.619052 2.0447,0.620048 4.02725,2.106961 5.76173,4.647379 1.73447,2.540422 3.22139,6.133802 4.77026,10.346862 1.54887,4.21306 3.15969,9.04554 4.15084,13.81614 0.99114,4.7706 1.36287,9.47917 0.61923,13.81582 -0.74363,4.33665 -2.60228,8.30176 -4.15118,11.27558 -1.54889,2.97383 -2.78799,4.95639 -5.20404,6.87681 -2.41605,1.92043 -6.00943,3.77907 -10.09829,4.8324 -4.08887,1.05333 -8.67353,1.30115 -12.01905,1.11547 -3.34553,-0.18567 -5.452,-0.80522 -7.24899,-2.41569 -1.797,-1.61047 -3.28392,-4.21257 -3.84191,-6.87688 -0.558,-2.6643 -0.18627,-5.39031 -0.24811,-9.10755 z"
       id="path193"
       inkscape:path-effect="#path-effect195"
       inkscape:original-d="m 184.00958,144.23377 c -0.49465,-4.70766 -0.9903,-9.41633 -1.48695,-14.12599 2.10755,-5.45124 4.21402,-10.90327 6.31952,-16.3564 2.85104,-4.58385 5.70096,-9.16851 8.54994,-13.754256 2.47929,-1.733805 4.95749,-3.468541 7.43473,-5.204311 2.10755,-0.24683 4.21402,-0.494649 6.31952,-0.743474 1.98364,1.487976 3.96619,2.974893 5.94779,4.460839 1.48797,3.594522 2.97489,7.187902 4.46084,10.780362 1.61189,4.83367 3.22271,9.66615 4.83257,14.49772 0.37274,4.70976 0.74447,9.41833 1.11521,14.12599 -1.85772,3.96627 -3.71637,7.93138 -5.57605,11.89557 -1.23814,1.98363 -2.47724,3.96619 -3.71736,5.94778 -3.59253,1.85972 -7.18591,3.71837 -10.78036,5.57605 -4.58384,0.24883 -9.1685,0.49665 -13.75425,0.74347 -2.10555,-0.61857 -4.21202,-1.23812 -6.31952,-1.85868 -1.48598,-2.60121 -2.9729,-5.20331 -4.46084,-7.80647 0.37274,-2.72512 0.74447,-5.45113 1.11521,-8.1782 z" />
    <path
       style="display:inline;fill:#ff9955"
       d="m 73.975491,172.30021 c 1.610962,-2.78839 3.965294,-5.01881 6.939522,-6.69172 2.974229,-1.6729 6.567609,-2.78809 9.603342,-4.02722 3.035733,-1.23914 5.513923,-2.60214 8.116086,-4.0891 2.602159,-1.48696 5.328169,-3.09778 7.186619,-5.45175 1.85844,-2.35396 2.84972,-5.4517 3.90304,-7.68239 1.05331,-2.23069 2.1685,-3.59369 3.90372,-4.52317 1.73521,-0.92949 4.0895,-1.42512 7.12551,-1.67287 3.03601,-0.24774 6.7533,-0.24774 9.60333,-0.18575 2.85003,0.062 4.83258,0.1859 7.55851,-0.18596 2.72593,-0.37187 6.1954,-1.23924 9.23137,-1.7968 3.03597,-0.55756 5.63807,-0.80538 7.9925,-0.86726 2.35443,-0.0619 4.4609,0.062 6.44347,1.11578 1.98257,1.05376 3.84121,3.03631 5.5138,5.82446 1.67259,2.78815 3.15951,6.38153 4.33672,9.10762 1.17721,2.72608 2.04457,4.58472 3.65569,6.62918 1.61112,2.04446 3.9654,4.27483 6.75352,6.38124 2.78813,2.1064 6.00978,4.08895 9.29346,6.38142 3.28367,2.29248 6.62924,4.89458 8.67341,7.49692 2.04418,2.60235 2.78763,5.20445 2.84936,8.9217 0.0617,3.71725 -0.55783,8.54973 -1.79701,14.00181 -1.23918,5.45209 -3.09783,11.52366 -6.13365,16.9136 -3.03581,5.38994 -7.24875,10.09851 -11.21363,13.01033 -3.96488,2.91182 -7.68217,4.02701 -11.5232,3.90339 -3.84104,-0.12363 -7.80615,-1.48663 -10.84222,-3.65476 -3.03606,-2.16813 -5.14253,-5.14197 -6.31999,-7.31044 -1.17747,-2.16848 -1.42529,-3.53149 -2.04436,-4.4611 -0.61908,-0.92962 -1.61036,-1.42526 -3.59339,-0.93 -1.98302,0.49527 -4.95685,1.98218 -7.06347,3.15939 -2.10662,1.1772 -3.34572,2.04457 -4.89431,2.60219 -1.5486,0.55762 -3.40724,0.80544 -5.08004,0.99133 -1.6728,0.18589 -3.15972,0.3098 -5.0183,0.12409 -1.85858,-0.1857 -4.08895,-0.68134 -5.88567,-1.30071 -1.79673,-0.61938 -3.15974,-1.36284 -4.39887,-2.04435 -1.23913,-0.68152 -2.35432,-1.30107 -3.34563,-1.73492 -0.9913,-0.43386 -1.85867,-0.68168 -2.72677,0.24777 -0.86809,0.92944 -1.73545,3.0359 -2.72666,4.64652 -0.9912,1.61062 -2.10639,2.72581 -3.77914,4.0888 -1.67275,1.36298 -3.90312,2.9738 -6.195195,3.9651 -2.29208,0.9913 -4.646364,1.36303 -7.558144,0.7438 -2.91178,-0.61923 -6.381253,-2.23006 -9.47921,-4.52222 -3.097958,-2.29217 -5.823969,-5.266 -8.116539,-8.61158 -2.29257,-3.34559 -4.151214,-7.06288 -4.956967,-11.21411 -0.805753,-4.15124 -0.557933,-8.7359 0.06159,-13.4447 0.619518,-4.7088 1.610796,-9.54128 2.540134,-13.63045 0.929338,-4.08917 1.796705,-7.43473 3.407667,-10.22311 z"
       id="path197"
       inkscape:path-effect="#path-effect199"
       inkscape:original-d="m 73.232094,171.74227 c 2.355332,-2.22942 4.709663,-4.45984 7.062994,-6.69126 3.594525,-1.11423 7.187906,-2.22941 10.780359,-3.34562 2.479293,-1.36207 4.957487,-2.72507 7.434731,-4.08911 2.727122,-1.60989 5.453132,-3.22071 8.178202,-4.83257 0.99232,-3.09687 1.9836,-6.19461 2.97389,-9.29341 1.11624,-1.36206 2.23142,-2.72507 3.34563,-4.08911 2.35538,-0.49465 4.70966,-0.99029 7.063,-1.48694 3.71844,10e-4 7.43573,10e-4 11.15209,0 1.98364,0.12491 3.96619,0.24882 5.94779,0.37174 3.47061,-0.86641 6.94008,-1.73378 10.40862,-2.60216 2.60321,-0.24683 5.20531,-0.49465 7.80647,-0.74347 2.10754,0.12491 4.21401,0.24882 6.31952,0.37173 1.85972,1.98364 3.71836,3.96619 5.57604,5.94779 1.48798,3.59452 2.9749,7.1879 4.46084,10.78036 0.8684,1.85972 1.73577,3.71836 2.60216,5.57604 2.35538,2.23147 4.70966,4.46184 7.06299,6.69126 3.22278,1.98364 6.44443,3.96619 9.66515,5.94779 3.3467,2.6032 6.69226,5.20531 10.03689,7.80646 0.74449,2.60321 1.48794,5.20531 2.23042,7.80647 -0.61858,4.83367 -1.23813,9.66615 -1.85869,14.49772 -1.85772,6.07282 -3.71636,12.1444 -5.57604,18.21509 -4.2121,4.70976 -8.42503,9.41833 -12.63905,14.12599 -3.71644,1.11623 -7.43373,2.23142 -11.15209,3.34563 -3.96427,-1.36206 -7.92938,-2.72507 -11.89557,-4.0891 -2.10555,-2.97295 -4.21201,-5.94679 -6.31952,-8.92168 -0.24683,-1.36206 -0.49465,-2.72507 -0.74347,-4.0891 -0.99032,-0.49466 -1.9816,-0.9903 -2.9739,-1.48695 -2.97295,1.48798 -5.94678,2.9749 -8.92167,4.46084 -1.23815,0.8684 -2.47725,1.73577 -3.71737,2.60216 -1.85772,0.24883 -3.71636,0.49665 -5.57605,0.74347 -1.48597,0.12492 -2.97289,0.24883 -4.46083,0.37174 -2.22947,-0.49466 -4.45984,-0.9903 -6.69126,-1.48695 -1.36206,-0.74249 -2.72507,-1.48594 -4.0891,-2.23042 -1.11423,-0.61857 -2.22942,-1.23812 -3.34563,-1.85868 -0.8664,-0.24683 -1.73377,-0.49465 -2.60216,-0.74347 -0.8664,2.10755 -1.73377,4.21401 -2.60215,6.31952 -1.11423,1.11623 -2.22942,2.23142 -3.34563,3.34563 -2.22947,1.61189 -4.45984,3.22271 -6.691259,4.83257 -2.353378,0.37274 -4.707662,0.74447 -7.062994,1.11521 -3.46861,-1.60989 -6.938081,-3.22072 -10.408622,-4.83257 -2.725123,-2.97296 -5.451136,-5.94679 -8.178204,-8.92168 -1.857719,-3.71644 -3.716365,-7.43373 -5.576047,-11.1521 0.248829,-4.58384 0.496648,-9.1685 0.743473,-13.75425 0.992317,-4.83167 1.983594,-9.66415 2.973892,-14.49772 0.868402,-3.3447 1.73577,-6.69026 2.602155,-10.03689 z" />
    <path
       style="fill:#2b1100"
       d="m 111.4589,215.54602 c -0.30968,-0.43349 -0.30968,-3.15956 -0.12388,-5.57597 0.1858,-2.4164 0.55753,-4.52287 1.17707,-6.69149 0.61954,-2.16862 1.4869,-4.39899 2.16843,-6.00992 0.68152,-1.61094 1.17716,-2.60222 1.17716,-2.2923 0,0.30991 -0.49564,1.92073 -0.80537,3.40783 -0.30972,1.48709 -0.43363,2.8501 -0.74344,5.14247 -0.30981,2.29237 -0.80545,5.51403 -1.3631,8.05413 -0.55764,2.5401 -1.17719,4.39875 -1.48687,3.96525 z"
       id="path255"
       inkscape:path-effect="#path-effect257"
       inkscape:original-d="m 111.14922,217.8376 c 0.001,-2.72507 0.001,-5.45114 0,-8.1782 0.37274,-2.10555 0.74447,-4.21202 1.11521,-6.31952 0.8684,-2.22947 1.73577,-4.45984 2.60215,-6.69126 0.49666,-0.99032 0.9923,-1.9816 1.48695,-2.97389 -0.49466,1.61189 -0.9903,3.22271 -1.48695,4.83257 -0.12291,1.36406 -0.24682,2.72707 -0.37173,4.0891 -0.49466,3.22278 -0.9903,6.44444 -1.48695,9.66515 -0.61857,1.85972 -1.23812,3.71837 -1.85868,5.57605 z" />
    <path
       style="fill:#2b1100"
       d="m 153.34188,217.83815 c 0.68108,-1.11466 0.43325,-3.34508 0.30927,-5.45166 -0.12397,-2.10657 -0.12397,-4.08913 -0.12397,-5.88587 0,-1.79674 0,-3.40757 0.12385,-5.01853 0.12385,-1.61096 0.37168,-3.22178 0.68142,-4.52301 0.30975,-1.30123 0.68148,-2.29251 0.55816,-2.78843 -0.12332,-0.49592 -0.74287,-0.49592 -1.36304,0.18584 -0.62017,0.68175 -1.23971,2.04475 -1.98319,4.21335 -0.74347,2.16859 -1.61084,5.14242 -2.1684,7.86864 -0.55756,2.72621 -0.80538,5.2044 -0.74324,7.24911 0.0621,2.04471 0.43387,3.65553 1.42555,4.46037 0.99168,0.80485 2.60251,0.80485 3.28359,-0.30981 z"
       id="path259"
       inkscape:path-effect="#path-effect261"
       inkscape:original-d="m 154.27066,218.95281 c -0.24683,-2.22942 -0.49465,-4.45984 -0.74348,-6.69126 0.001,-1.98163 0.001,-3.96419 0,-5.94778 0.001,-1.60989 0.001,-3.22072 0,-4.83258 0.24883,-1.60989 0.49665,-3.22071 0.74348,-4.83257 0.37274,-0.99032 0.74447,-1.9816 1.11521,-2.97389 -0.61858,10e-4 -1.23813,10e-4 -1.85869,0 -0.61857,1.36406 -1.23812,2.72706 -1.85868,4.0891 -0.8664,2.97495 -1.73377,5.94878 -2.60216,8.92167 -0.24682,2.4793 -0.49464,4.95749 -0.74347,7.43474 0.37275,1.61189 0.74447,3.22271 1.11521,4.83257 1.61189,0.001 3.22272,0.001 4.83258,0 z" />
  </g>
</svg>
